# xmcd CD database file
#
# Track frame offsets:
#	150
#	17912
#	30972
#	44941
#	59138
#	78660
#	93364
#	109851
#	125182
#	153379
#
# Disc length: 2327 seconds
#
# Revision: 0
# Processed by: cddbd v1.5.1PL0 Copyright (c) Steve Scherf et al.
# Submitted via: CDex 1.51
#
DISCID=8c09150a
DTITLE=Rich Minus - (Still Alive In) Texas
DYEAR=1996
DGENRE=Country
TTITLE0=Just Another Pretty Face
TTITLE1=La Bamba
TTITLE2=Get Your Drift
TTITLE3=Texas Bill
TTITLE4=The Lady's Gentleman
TTITLE5=Texas 1995
TTITLE6=Daylight  In Your Eyes
TTITLE7=Woke Up This Morning
TTITLE8=Downtown Landlord Upscals Blues
TTITLE9=It's So Hard
EXTD=YEAR: 1996
EXTT0=
EXTT1=
EXTT2=
EXTT3=
EXTT4=
EXTT5=
EXTT6=
EXTT7=
EXTT8=
EXTT9=
PLAYORDER=
